<svg width="1440" height="65" viewBox="0 0 1440 65" fill="none" xmlns="http://www.w3.org/2000/svg">
<path d="M1422.5 0C1440.45 0 1455 14.5507 1455 32.5C1455 50.4493 1440.45 65 1422.5 65C1410.22 65 1399.53 58.1841 1394 48.1289C1388.47 58.1841 1377.78 65 1365.5 65C1353.22 65 1342.53 58.1841 1337 48.1289C1331.47 58.1841 1320.78 65 1308.5 65C1296.22 65 1285.53 58.1841 1280 48.1289C1274.47 58.1841 1263.78 65 1251.5 65C1239.22 65 1228.53 58.1841 1223 48.1289C1217.47 58.1841 1206.78 65 1194.5 65C1182.22 65 1171.53 58.1841 1166 48.1289C1160.47 58.1841 1149.78 65 1137.5 65C1125.22 65 1114.53 58.1841 1109 48.1289C1103.47 58.1841 1092.78 65 1080.5 65C1068.22 65 1057.53 58.1841 1052 48.1289C1046.47 58.1841 1035.78 65 1023.5 65C1011.22 65 1000.53 58.1841 995 48.1289C989.474 58.1841 978.784 65 966.5 65C954.216 65 943.526 58.1841 938 48.1289C932.474 58.1841 921.784 65 909.5 65C897.216 65 886.526 58.1841 881 48.1289C875.474 58.1841 864.784 65 852.5 65C840.216 65 829.526 58.1841 824 48.1289C818.474 58.1841 807.784 65 795.5 65C783.216 65 772.526 58.1841 767 48.1289C761.474 58.1841 750.784 65 738.5 65C726.216 65 715.526 58.1841 710 48.1289C704.474 58.1841 693.784 65 681.5 65C669.216 65 658.526 58.1841 653 48.1289C647.474 58.1841 636.784 65 624.5 65C612.216 65 601.526 58.1841 596 48.1289C590.474 58.1841 579.784 65 567.5 65C555.216 65 544.526 58.1841 539 48.1289C533.474 58.1841 522.784 65 510.5 65C498.216 65 487.526 58.1841 482 48.1289C476.474 58.1841 465.784 65 453.5 65C441.216 65 430.526 58.1841 425 48.1289C419.474 58.1841 408.784 65 396.5 65C384.216 65 373.526 58.1841 368 48.1289C362.474 58.1841 351.784 65 339.5 65C327.216 65 316.526 58.1841 311 48.1289C305.474 58.1841 294.784 65 282.5 65C270.216 65 259.526 58.1841 254 48.1289C248.474 58.1841 237.784 65 225.5 65C213.216 65 202.526 58.1841 197 48.1289C191.474 58.1841 180.784 65 168.5 65C156.216 65 145.526 58.1841 140 48.1289C134.474 58.1841 123.784 65 111.5 65C99.2162 65 88.5258 58.1841 83 48.1289C77.4742 58.1841 66.7838 65 54.5 65C42.2162 65 31.5258 58.1841 26 48.1289C20.4742 58.1841 9.78382 65 -2.5 65C-20.4493 65 -35 50.4493 -35 32.5C-35 14.5507 -20.4493 0 -2.5 0C9.78351 0 20.474 6.8153 26 16.8701C31.526 6.8153 42.2165 0 54.5 0C66.7835 0 77.474 6.8153 83 16.8701C88.526 6.8153 99.2165 0 111.5 0C123.784 0 134.474 6.8153 140 16.8701C145.526 6.8153 156.216 0 168.5 0C180.784 0 191.474 6.8153 197 16.8701C202.526 6.8153 213.216 0 225.5 0C237.784 0 248.474 6.8153 254 16.8701C259.526 6.8153 270.216 0 282.5 0C294.784 0 305.474 6.8153 311 16.8701C316.526 6.8153 327.216 0 339.5 0C351.784 0 362.474 6.8153 368 16.8701C373.526 6.8153 384.216 0 396.5 0C408.784 0 419.474 6.8153 425 16.8701C430.526 6.8153 441.216 0 453.5 0C465.784 0 476.474 6.8153 482 16.8701C487.526 6.8153 498.216 0 510.5 0C522.784 0 533.474 6.8153 539 16.8701C544.526 6.8153 555.216 0 567.5 0C579.784 0 590.474 6.8153 596 16.8701C601.526 6.8153 612.216 0 624.5 0C636.784 0 647.474 6.8153 653 16.8701C658.526 6.8153 669.216 0 681.5 0C693.784 0 704.474 6.8153 710 16.8701C715.526 6.8153 726.216 0 738.5 0C750.784 0 761.474 6.8153 767 16.8701C772.526 6.8153 783.216 0 795.5 0C807.784 0 818.474 6.8153 824 16.8701C829.526 6.8153 840.216 0 852.5 0C864.784 0 875.474 6.8153 881 16.8701C886.526 6.8153 897.216 0 909.5 0C921.784 0 932.474 6.8153 938 16.8701C943.526 6.8153 954.216 0 966.5 0C978.784 0 989.474 6.8153 995 16.8701C1000.53 6.8153 1011.22 0 1023.5 0C1035.78 0 1046.47 6.8153 1052 16.8701C1057.53 6.8153 1068.22 0 1080.5 0C1092.78 0 1103.47 6.8153 1109 16.8701C1114.53 6.8153 1125.22 0 1137.5 0C1149.78 0 1160.47 6.8153 1166 16.8701C1171.53 6.8153 1182.22 0 1194.5 0C1206.78 0 1217.47 6.8153 1223 16.8701C1228.53 6.8153 1239.22 0 1251.5 0C1263.78 0 1274.47 6.8153 1280 16.8701C1285.53 6.8153 1296.22 0 1308.5 0C1320.78 0 1331.47 6.8153 1337 16.8701C1342.53 6.8153 1353.22 0 1365.5 0C1377.78 0 1388.47 6.8153 1394 16.8701C1399.53 6.8153 1410.22 0 1422.5 0Z" fill="#F4ECE6"/>
</svg>
